<?xml version="1.0" encoding="UTF-8"?>
<svg id="Layer_2" data-name="Layer 2" xmlns="http://www.w3.org/2000/svg" viewBox="0 0 109.65 65.04">
  <defs>
    <style>
      .cls-1 {
        fill: #005332;
      }

      .cls-2 {
        fill: #e65552;
      }

      .cls-3 {
        fill: #e5524f;
      }

      .cls-4 {
        fill: #fefefe;
      }

      .cls-5 {
        fill: #65b22e;
      }

      .cls-6 {
        fill: #dd1915;
      }
    </style>
  </defs>
  <g id="Layer_1-2" data-name="Layer 1">
    <g>
      <path class="cls-4" d="M109.36,35.37c-.2.54-1.46.42-1.98.3-1.92-.44-2.43-1.75-2.63-3.52l-.02-17.23.28-.17.02,17.39c0,1.16.47,2.24,1.38,2.84.91.6,1.97.53,2.95.39Z"/>
      <path class="cls-4" d="M109.36,35.37c.09-.01.18-.14.29-.12-.05.2-.11.27-.19.23h0s-.06-.06-.09-.11Z"/>
      <path class="cls-4" d="M109.65,14.75h-4.64c1.46-.08,2.94-.11,4.43-.07.02-.03.03-.05.05-.07t0-.02c.07-.06.11,0,.15.16Z"/>
      <path class="cls-2" d="M109.65,11.94v2.81h-4.64c-.22-.23-.14-.39.17-.42h4.03v-1.96s-4.12-.02-4.12-.02c-.24-.05-.26-.22-.08-.41h4.64Z"/>
      <path class="cls-3" d="M72.96,0v.14c0,.11-.04.28-.12.28-1.12.08-2.78.08-3.91,0l-.2-.28v-.14h4.23Z"/>
      <path class="cls-3" d="M109.65,35.25v2.81s-.1,0-.15.02c-.1-.02-.27-.05-.28-.13-.08-.72-.04-1.9.14-2.58.09-.01.18-.14.29-.12Z"/>
      <path class="cls-6" d="M64.76,18.19c-1.34-3.37-4.09-5.75-7.7-6.41-3.7-.67-7.59-.11-10.96,1.5v35.22h4.25v-10.48c5.45,1.56,11,.14,13.73-5.07,2.17-4.14,2.41-10.44.68-14.76ZM55.83,35.56c-1.8.48-3.66.39-5.47-.24V14.82c1.85-.7,3.78-.84,5.66-.45,3.1.64,4.66,3.31,5.18,6.22.88,4.93.67,13.36-5.37,14.97Z"/>
      <path class="cls-1" d="M42.85,15.93c-1.72-3.3-5.44-4.7-8.95-3.36-2.71,1.03-4.95,2.87-6.74,5.16-3.48,4.45-5.09,10.47-6.09,15.97-.07.4-.18.6-.6.69-1.04.22-1.75,1.08-1.82,2.06-.06,1.08.56,2,1.67,2.34-.86,8.96,1.84,19.84,10.88,23.72.22.09.39.15.58.12v-.38c-1.63-1.37-3.21-2.83-4.63-4.41-1.62-1.56-2.58-3.78-3.27-5.97-1.4-4.45-1.46-9.16-.64-13.71,2.21-.7,4.19-1.36,6.31-2.19,4.23-1.65,7.89-4.26,10.94-7.6,2.97-3.51,4.59-8.14,2.36-12.44ZM40.6,22.47c-2.65,6.66-10.42,9.36-16.91,11.31,2.06-6.18,5.09-13.25,10.64-16.73,1.01-.63,2.11-.94,3.25-.83,1.68.17,2.97,1.23,3.34,2.89.26,1.13.12,2.26-.32,3.36Z"/>
      <path class="cls-6" d="M85.76,11.63c-3.91.44-6.98,2.85-8.51,6.46-1.64,4.23-1.86,9.01-.33,13.29,1.41,3.99,4.79,6.69,8.97,7.13,3.03.32,7.18-.1,9.8-1.75V13.33c-3.07-1.51-6.51-2.09-9.93-1.7ZM91.43,34.98c-1.53.78-3.18.88-4.84.73-3.43-.29-5.22-2.96-5.9-6.09-.83-3.83-.71-9.16,1.47-12.53,2.02-3.13,5.87-3.65,9.27-2.28v20.17Z"/>
      <path class="cls-6" d="M14.04,37.39c-3.96,2.04-10.09,1.62-14.04-.5l1.3-3.05c2.62,1.34,5.65,1.88,8.54,1.31,2.56-.51,4.24-2.55,4.39-5.08C14.76,21.45.58,24.07.36,13.2c-.08-3.77,2.03-6.97,5.67-8.22s7.96-.84,11.53,1.09c-.34.98-.74,1.86-1.18,2.77-2.37-1.26-4.99-1.79-7.54-1.28-2.31.46-3.79,2.19-3.99,4.46-.79,8.77,13.73,5.91,14,17.06.09,3.54-1.64,6.68-4.82,8.32Z"/>
      <path class="cls-6" d="M109.51,35.67v2.41c-1.91.59-4.06.6-5.92-.43-1.67-.93-2.8-2.78-2.81-4.8l-.08-18.12-2.98-.03v-2.71l2.99-.03.02-5.99,4.27-1.29v7.26s.03.14.15.14h4.35v2.53h-4.35c-.09,0-.16.08-.14.14l.02,17.39c0,1.16.47,2.24,1.38,2.84.91.6,1.97.53,2.95.39.03.05.06.09.09.1h0c.03.06.05.12.05.2Z"/>
      <polygon class="cls-6" points="72.97 .14 73 38.21 68.7 38.22 68.73 .14 72.97 .14"/>
      <path class="cls-5" d="M31.79,62.63c-1.38-1.22-3.84-3.17-4.64-4.79,1.7,1.64,4.25,2.18,6.58,2.01,7.31-.54,16.7-7.65,21.21-13.29.16.99-.04,1.79-.33,2.65-3.13,9.36-11.83,16.15-21.94,13.82-.36-.08-.65-.2-.88-.4Z"/>
      <path class="cls-5" d="M94.84,51.19c-.07.39.06.69-.13,1.09-1.11-1.08-2.6-1.37-4.09-1.21-2.58.27-4.4,2.26-4.39,4.83.01,2.56,1.8,4.55,4.36,4.84,1.46.16,2.93-.12,4.05-1.17.23,1.39-.3,2.95-1.91,3.28-1.75.37-3.49-.05-4.95-1.06-.36.65-.76,1.17-1.04,1.85,2,1.32,4.33,1.65,6.58,1.24,2.2-.39,3.71-2.05,3.73-4.32l.06-9.37c-.81-.05-1.52-.06-2.27,0ZM94.61,56.8c-.38,1.23-1.59,1.97-2.96,1.95-1.28-.01-2.44-.71-2.81-1.82-.43-1.26-.1-2.64,1.04-3.36,1.05-.66,2.42-.71,3.53-.06,1.21.7,1.56,2.07,1.2,3.29Z"/>
      <path class="cls-5" d="M76.48,52.53c-1.1-1.16-2.63-1.59-4.19-1.49-2.79.17-4.78,2.35-4.78,5.15,0,2.18,1.21,4.06,3.29,4.79,2.02.71,4.95.53,6.36-1.27-.43-.52-.78-.98-1.29-1.45-1.31,1.22-3.13,1.39-4.59.6-.71-.38-1.21-1.04-1.32-1.88l7.84-.06c.19-1.67-.22-3.23-1.32-4.39ZM69.94,55.37c.09-1.4,1.31-2.33,2.55-2.42,1.48-.09,2.79.73,3.06,2.38l-5.61.04Z"/>
      <path class="cls-5" d="M61.34,53.12c-1.58-.09-2.91.9-2.93,2.46l-.06,5.65h-2.36s-.01-10.03-.01-10.03c.76-.06,1.45-.04,2.21-.02.16.3-.03.58.15,1.06,1.12-1,2.52-1.32,4.01-1.17,2,.19,3.52,1.67,3.53,3.74l.04,6.44h-2.39s-.05-5.99-.05-5.99c0-1.23-.92-2.06-2.16-2.13Z"/>
      <path class="cls-5" d="M109.57,51.23l-5.92,13.65h-2.6s1.69-3.95,1.69-3.95l-4.22-9.75,2.45-.03,3.16,7.3,3.17-7.28c.77-.03,1.47-.1,2.28.04Z"/>
      <path class="cls-5" d="M81.88,61.19c-.8.09-1.58.06-2.39,0v-10c.77-.08,1.49-.06,2.23,0,.09.43-.07.77.13,1.2.87-1.05,2.18-1.42,3.47-1.34-.02.85.09,1.54-.07,2.24-.86-.11-1.69.01-2.36.52-.57.44-.99,1.23-.99,2.08l-.02,5.29Z"/>
    </g>
  </g>
</svg>